<?xml version="1.0" standalone="no"?><!DOCTYPE svg PUBLIC "-//W3C//DTD SVG 1.1//EN" "http://www.w3.org/Graphics/SVG/1.1/DTD/svg11.dtd"><svg version="1.1" xmlns="http://www.w3.org/2000/svg" height="1205px" width="2600px"><rect x="0" y="0" width="2600" height="1205" fill="#252526"></rect><svg x="100" y="100" overflow="visible"><svg class="subLines" overflow="visible" x="160" y="45"><path d="M 343 165.5 C 313 165.5 324.05 55 283 55 H 79" stroke="#848fa0" fill="none" stroke-width="2"></path><path d="M 343 165.5 C 313 165.5 318.55 110 283 110 H 184" stroke="#848fa0" fill="none" stroke-width="2"></path><path d="M 343 165.5 C 313 165.5 313.05 165 283 165 H 30" stroke="#848fa0" fill="none" stroke-width="2"></path><path d="M 343 165.5 C 313 165.5 318.45 220 283 220 H 41" stroke="#848fa0" fill="none" stroke-width="2"></path><path d="M 343 165.5 C 313 165.5 323.95 275 283 275 H 185" stroke="#848fa0" fill="none" stroke-width="2"></path><path d="M 343 165.5 C 313 165.5 329.45 330 283 330 H 131" stroke="#848fa0" fill="none" stroke-width="2"></path></svg><svg class="subLines" overflow="visible" x="145" y="420"><path d="M 397 137.5 C 367 137.5 375.25 55 337 55 H 249" stroke="#748be9" fill="none" stroke-width="2"></path><path d="M 397 137.5 C 367 137.5 369.75 110 337 110 H 114" stroke="#748be9" fill="none" stroke-width="2"></path><path d="M 397 137.5 C 367 137.5 369.75 165 337 165 H 30" stroke="#748be9" fill="none" stroke-width="2"></path><path d="M 397 137.5 C 367 137.5 375.25 220 337 220 H 112" stroke="#748be9" fill="none" stroke-width="2"></path><path d="M 397 137.5 C 367 137.5 380.75 275 337 275 H 165" stroke="#748be9" fill="none" stroke-width="2"></path></svg><svg class="subLines" overflow="visible" x="65" y="740"><path d="M 463 110.5 C 433 110.5 438.55 55 403 55 H 323" stroke="#d2f9fe" fill="none" stroke-width="2"></path><path d="M 463 110.5 C 433 110.5 433.05 110 403 110 H 304" stroke="#d2f9fe" fill="none" stroke-width="2"></path><path d="M 463 110.5 C 433 110.5 438.45 165 403 165 H 30" stroke="#d2f9fe" fill="none" stroke-width="2"></path><path d="M 463 110.5 C 433 110.5 443.95 220 403 220 H 173" stroke="#d2f9fe" fill="none" stroke-width="2"></path></svg><svg class="subLines" overflow="visible" x="1575" y="73"><path d="M 237 165.5 C 267 165.5 255.95 55 297 55 H 469" stroke="#4145a5" fill="none" stroke-width="2"></path><path d="M 237 165.5 C 267 165.5 261.45 110 297 110 H 441" stroke="#4145a5" fill="none" stroke-width="2"></path><path d="M 237 165.5 C 267 165.5 266.95 165 297 165 H 730" stroke="#4145a5" fill="none" stroke-width="2"></path><path d="M 237 165.5 C 267 165.5 261.55 220 297 220 H 535" stroke="#4145a5" fill="none" stroke-width="2"></path><path d="M 237 165.5 C 267 165.5 256.05 275 297 275 H 480" stroke="#4145a5" fill="none" stroke-width="2"></path><path d="M 237 165.5 C 267 165.5 250.55 330 297 330 H 703" stroke="#4145a5" fill="none" stroke-width="2"></path></svg><svg class="subLines" overflow="visible" x="1575" y="448"><path d="M 300 110.5 C 330 110.5 324.45 55 360 55 H 423" stroke="#789afa" fill="none" stroke-width="2"></path><path d="M 300 110.5 C 330 110.5 329.95 110 360 110 H 441" stroke="#789afa" fill="none" stroke-width="2"></path><path d="M 300 110.5 C 330 110.5 324.55 165 360 165 H 426" stroke="#789afa" fill="none" stroke-width="2"></path><path d="M 300 110.5 C 330 110.5 319.05 220 360 220 H 428" stroke="#789afa" fill="none" stroke-width="2"></path></svg><svg class="subLines" overflow="visible" x="1575" y="713"><path d="M 314 110.5 C 344 110.5 338.45 55 374 55 H 560" stroke="#706cf4" fill="none" stroke-width="2"></path><path d="M 314 110.5 C 344 110.5 343.95 110 374 110 H 640" stroke="#706cf4" fill="none" stroke-width="2"></path><path d="M 314 110.5 C 344 110.5 338.55 165 374 165 H 680" stroke="#706cf4" fill="none" stroke-width="2"></path><path d="M 314 110.5 C 344 110.5 333.05 220 374 220 H 481" stroke="#706cf4" fill="none" stroke-width="2"></path></svg><svg class="lines" overflow="visible"><path d="M 1033.054975124378 502.5 Q 1033.054975124378 210.5 742 210.5" stroke="#848fa0" fill="none" stroke-width="4"></path><path d="M 1012.5975124378108 502.5 Q 1012.5975124378108 557.5 742 557.5" stroke="#748be9" fill="none" stroke-width="4"></path><path d="M 1037.8888059701492 502.5 Q 1037.8888059701492 850.5 742 850.5" stroke="#d2f9fe" fill="none" stroke-width="4"></path><path d="M 1297.3619402985075 502.5 Q 1297.3619402985075 238.5 1585 238.5" stroke="#4145a5" fill="none" stroke-width="4"></path><path d="M 1315.3161691542289 502.5 Q 1315.3161691542289 558.5 1585 558.5" stroke="#789afa" fill="none" stroke-width="4"></path><path d="M 1292.4417910447762 502.5 Q 1292.4417910447762 823.5 1585 823.5" stroke="#706cf4" fill="none" stroke-width="4"></path></svg><svg class="topiclinks" overflow="visible"></svg><svg class="summary" overflow="visible"></svg><rect x="473" y="186" rx="20px" ry="20px" width="268.828px" height="49px" fill="rgb(76, 79, 105)" stroke="rgb(132, 143, 160)" stroke-width="3px"></rect><g><rect x="498" y="194" rx="0px" ry="0px" width="212.828px" height="27px" fill="rgba(0, 0, 0, 0)" stroke="rgb(229, 231, 235)" stroke-width="0px"></rect><g><text x="498" y="216.5" text-anchor="start" font-family="-apple-system, BlinkMacSystemFont, &quot;Helvetica Neue&quot;, &quot;PingFang SC&quot;, &quot;Microsoft YaHei&quot;, &quot;Source Han Sans SC&quot;, &quot;Noto Sans CJK SC&quot;, &quot;WenQuanYi Micro Hei&quot;, sans-serif" font-size="18px" font-weight="400" fill="rgb(255, 255, 255)">JavaScript Fundamentals</text></g></g><rect x="239" y="61" rx="4px" ry="4px" width="194.859px" height="33px" fill="rgba(0, 0, 0, 0)" stroke="rgb(229, 231, 235)" stroke-width="0px"></rect><g><rect x="242" y="64" rx="0px" ry="0px" width="188.859px" height="27px" fill="rgba(0, 0, 0, 0)" stroke="rgb(229, 231, 235)" stroke-width="0px"></rect><g><text x="242" y="86.5" text-anchor="start" font-family="-apple-system, BlinkMacSystemFont, &quot;Helvetica Neue&quot;, &quot;PingFang SC&quot;, &quot;Microsoft YaHei&quot;, &quot;Source Han Sans SC&quot;, &quot;Noto Sans CJK SC&quot;, &quot;WenQuanYi Micro Hei&quot;, sans-serif" font-size="18px" font-weight="400" fill="rgb(204, 204, 204)">Data Types &amp; Variables</text></g></g><rect x="344" y="116" rx="4px" ry="4px" width="89.625px" height="33px" fill="rgba(0, 0, 0, 0)" stroke="rgb(229, 231, 235)" stroke-width="0px"></rect><g><rect x="347" y="119" rx="0px" ry="0px" width="83.625px" height="27px" fill="rgba(0, 0, 0, 0)" stroke="rgb(229, 231, 235)" stroke-width="0px"></rect><g><text x="347" y="141.5" text-anchor="start" font-family="-apple-system, BlinkMacSystemFont, &quot;Helvetica Neue&quot;, &quot;PingFang SC&quot;, &quot;Microsoft YaHei&quot;, &quot;Source Han Sans SC&quot;, &quot;Noto Sans CJK SC&quot;, &quot;WenQuanYi Micro Hei&quot;, sans-serif" font-size="18px" font-weight="400" fill="rgb(204, 204, 204)">Operators</text></g></g><rect x="190" y="171" rx="4px" ry="4px" width="243.406px" height="33px" fill="rgba(0, 0, 0, 0)" stroke="rgb(229, 231, 235)" stroke-width="0px"></rect><g><rect x="193" y="174" rx="0px" ry="0px" width="237.406px" height="27px" fill="rgba(0, 0, 0, 0)" stroke="rgb(229, 231, 235)" stroke-width="0px"></rect><g><text x="193" y="196.5" text-anchor="start" font-family="-apple-system, BlinkMacSystemFont, &quot;Helvetica Neue&quot;, &quot;PingFang SC&quot;, &quot;Microsoft YaHei&quot;, &quot;Source Han Sans SC&quot;, &quot;Noto Sans CJK SC&quot;, &quot;WenQuanYi Micro Hei&quot;, sans-serif" font-size="18px" font-weight="400" fill="rgb(204, 204, 204)">Control Flow (if/else, switch)</text></g></g><rect x="201" y="226" rx="4px" ry="4px" width="232.859px" height="33px" fill="rgba(0, 0, 0, 0)" stroke="rgb(229, 231, 235)" stroke-width="0px"></rect><g><rect x="204" y="229" rx="0px" ry="0px" width="226.859px" height="27px" fill="rgba(0, 0, 0, 0)" stroke="rgb(229, 231, 235)" stroke-width="0px"></rect><g><text x="204" y="251.5" text-anchor="start" font-family="-apple-system, BlinkMacSystemFont, &quot;Helvetica Neue&quot;, &quot;PingFang SC&quot;, &quot;Microsoft YaHei&quot;, &quot;Source Han Sans SC&quot;, &quot;Noto Sans CJK SC&quot;, &quot;WenQuanYi Micro Hei&quot;, sans-serif" font-size="18px" font-weight="400" fill="rgb(204, 204, 204)">Loops (for, while, do-while)</text></g></g><rect x="345" y="281" rx="4px" ry="4px" width="88.5625px" height="33px" fill="rgba(0, 0, 0, 0)" stroke="rgb(229, 231, 235)" stroke-width="0px"></rect><g><rect x="348" y="284" rx="0px" ry="0px" width="82.5625px" height="27px" fill="rgba(0, 0, 0, 0)" stroke="rgb(229, 231, 235)" stroke-width="0px"></rect><g><text x="348" y="306.5" text-anchor="start" font-family="-apple-system, BlinkMacSystemFont, &quot;Helvetica Neue&quot;, &quot;PingFang SC&quot;, &quot;Microsoft YaHei&quot;, &quot;Source Han Sans SC&quot;, &quot;Noto Sans CJK SC&quot;, &quot;WenQuanYi Micro Hei&quot;, sans-serif" font-size="18px" font-weight="400" fill="rgb(204, 204, 204)">Functions</text></g></g><rect x="291" y="336" rx="4px" ry="4px" width="142.062px" height="33px" fill="rgba(0, 0, 0, 0)" stroke="rgb(229, 231, 235)" stroke-width="0px"></rect><g><rect x="294" y="339" rx="0px" ry="0px" width="136.062px" height="27px" fill="rgba(0, 0, 0, 0)" stroke="rgb(229, 231, 235)" stroke-width="0px"></rect><g><text x="294" y="361.5" text-anchor="start" font-family="-apple-system, BlinkMacSystemFont, &quot;Helvetica Neue&quot;, &quot;PingFang SC&quot;, &quot;Microsoft YaHei&quot;, &quot;Source Han Sans SC&quot;, &quot;Noto Sans CJK SC&quot;, &quot;WenQuanYi Micro Hei&quot;, sans-serif" font-size="18px" font-weight="400" fill="rgb(204, 204, 204)">Arrays &amp; Objects</text></g></g><rect x="512" y="533" rx="20px" ry="20px" width="230.438px" height="49px" fill="rgb(76, 79, 105)" stroke="rgb(116, 139, 233)" stroke-width="3px"></rect><g><rect x="537" y="541" rx="0px" ry="0px" width="174.438px" height="27px" fill="rgba(0, 0, 0, 0)" stroke="rgb(229, 231, 235)" stroke-width="0px"></rect><g><text x="537" y="563.5" text-anchor="start" font-family="-apple-system, BlinkMacSystemFont, &quot;Helvetica Neue&quot;, &quot;PingFang SC&quot;, &quot;Microsoft YaHei&quot;, &quot;Source Han Sans SC&quot;, &quot;Noto Sans CJK SC&quot;, &quot;WenQuanYi Micro Hei&quot;, sans-serif" font-size="18px" font-weight="400" fill="rgb(255, 255, 255)">Advanced JavaScript</text></g></g><rect x="394" y="436" rx="4px" ry="4px" width="78.0469px" height="33px" fill="rgba(0, 0, 0, 0)" stroke="rgb(229, 231, 235)" stroke-width="0px"></rect><g><rect x="397" y="439" rx="0px" ry="0px" width="72.0469px" height="27px" fill="rgba(0, 0, 0, 0)" stroke="rgb(229, 231, 235)" stroke-width="0px"></rect><g><text x="397" y="461.5" text-anchor="start" font-family="-apple-system, BlinkMacSystemFont, &quot;Helvetica Neue&quot;, &quot;PingFang SC&quot;, &quot;Microsoft YaHei&quot;, &quot;Source Han Sans SC&quot;, &quot;Noto Sans CJK SC&quot;, &quot;WenQuanYi Micro Hei&quot;, sans-serif" font-size="18px" font-weight="400" fill="rgb(204, 204, 204)">Closures</text></g></g><rect x="259" y="491" rx="4px" ry="4px" width="213.125px" height="33px" fill="rgba(0, 0, 0, 0)" stroke="rgb(229, 231, 235)" stroke-width="0px"></rect><g><rect x="262" y="494" rx="0px" ry="0px" width="207.125px" height="27px" fill="rgba(0, 0, 0, 0)" stroke="rgb(229, 231, 235)" stroke-width="0px"></rect><g><text x="262" y="516.5" text-anchor="start" font-family="-apple-system, BlinkMacSystemFont, &quot;Helvetica Neue&quot;, &quot;PingFang SC&quot;, &quot;Microsoft YaHei&quot;, &quot;Source Han Sans SC&quot;, &quot;Noto Sans CJK SC&quot;, &quot;WenQuanYi Micro Hei&quot;, sans-serif" font-size="18px" font-weight="400" fill="rgb(204, 204, 204)">Prototypes &amp; Inheritance</text></g></g><rect x="175" y="546" rx="4px" ry="4px" width="296.812px" height="33px" fill="rgba(0, 0, 0, 0)" stroke="rgb(229, 231, 235)" stroke-width="0px"></rect><g><rect x="178" y="549" rx="0px" ry="0px" width="290.812px" height="27px" fill="rgba(0, 0, 0, 0)" stroke="rgb(229, 231, 235)" stroke-width="0px"></rect><g><text x="178" y="571.5" text-anchor="start" font-family="-apple-system, BlinkMacSystemFont, &quot;Helvetica Neue&quot;, &quot;PingFang SC&quot;, &quot;Microsoft YaHei&quot;, &quot;Source Han Sans SC&quot;, &quot;Noto Sans CJK SC&quot;, &quot;WenQuanYi Micro Hei&quot;, sans-serif" font-size="18px" font-weight="400" fill="rgb(204, 204, 204)">Modules (ES Modules, CommonJS)</text></g></g><rect x="257" y="601" rx="4px" ry="4px" width="214.703px" height="33px" fill="rgba(0, 0, 0, 0)" stroke="rgb(229, 231, 235)" stroke-width="0px"></rect><g><rect x="260" y="604" rx="0px" ry="0px" width="208.703px" height="27px" fill="rgba(0, 0, 0, 0)" stroke="rgb(229, 231, 235)" stroke-width="0px"></rect><g><text x="260" y="626.5" text-anchor="start" font-family="-apple-system, BlinkMacSystemFont, &quot;Helvetica Neue&quot;, &quot;PingFang SC&quot;, &quot;Microsoft YaHei&quot;, &quot;Source Han Sans SC&quot;, &quot;Noto Sans CJK SC&quot;, &quot;WenQuanYi Micro Hei&quot;, sans-serif" font-size="18px" font-weight="400" fill="rgb(204, 204, 204)">Functional Programming</text></g></g><rect x="310" y="656" rx="4px" ry="4px" width="161.938px" height="33px" fill="rgba(0, 0, 0, 0)" stroke="rgb(229, 231, 235)" stroke-width="0px"></rect><g><rect x="313" y="659" rx="0px" ry="0px" width="155.938px" height="27px" fill="rgba(0, 0, 0, 0)" stroke="rgb(229, 231, 235)" stroke-width="0px"></rect><g><text x="313" y="681.5" text-anchor="start" font-family="-apple-system, BlinkMacSystemFont, &quot;Helvetica Neue&quot;, &quot;PingFang SC&quot;, &quot;Microsoft YaHei&quot;, &quot;Source Han Sans SC&quot;, &quot;Noto Sans CJK SC&quot;, &quot;WenQuanYi Micro Hei&quot;, sans-serif" font-size="18px" font-weight="400" fill="rgb(204, 204, 204)">Metaprogramming</text></g></g><rect x="498" y="826" rx="20px" ry="20px" width="243.797px" height="49px" fill="rgb(76, 79, 105)" stroke="rgb(210, 249, 254)" stroke-width="3px"></rect><g><rect x="523" y="834" rx="0px" ry="0px" width="187.797px" height="27px" fill="rgba(0, 0, 0, 0)" stroke="rgb(229, 231, 235)" stroke-width="0px"></rect><g><text x="523" y="856.5" text-anchor="start" font-family="-apple-system, BlinkMacSystemFont, &quot;Helvetica Neue&quot;, &quot;PingFang SC&quot;, &quot;Microsoft YaHei&quot;, &quot;Source Han Sans SC&quot;, &quot;Noto Sans CJK SC&quot;, &quot;WenQuanYi Micro Hei&quot;, sans-serif" font-size="18px" font-weight="400" fill="rgb(255, 255, 255)">Backend Technologies</text></g></g><rect x="388" y="756" rx="4px" ry="4px" width="69.9688px" height="33px" fill="rgba(0, 0, 0, 0)" stroke="rgb(229, 231, 235)" stroke-width="0px"></rect><g><rect x="391" y="759" rx="0px" ry="0px" width="63.9688px" height="27px" fill="rgba(0, 0, 0, 0)" stroke="rgb(229, 231, 235)" stroke-width="0px"></rect><g><text x="391" y="781.5" text-anchor="start" font-family="-apple-system, BlinkMacSystemFont, &quot;Helvetica Neue&quot;, &quot;PingFang SC&quot;, &quot;Microsoft YaHei&quot;, &quot;Source Han Sans SC&quot;, &quot;Noto Sans CJK SC&quot;, &quot;WenQuanYi Micro Hei&quot;, sans-serif" font-size="18px" font-weight="400" fill="rgb(204, 204, 204)">Node.js</text></g></g><rect x="369" y="811" rx="4px" ry="4px" width="88.625px" height="33px" fill="rgba(0, 0, 0, 0)" stroke="rgb(229, 231, 235)" stroke-width="0px"></rect><g><rect x="372" y="814" rx="0px" ry="0px" width="82.625px" height="27px" fill="rgba(0, 0, 0, 0)" stroke="rgb(229, 231, 235)" stroke-width="0px"></rect><g><text x="372" y="836.5" text-anchor="start" font-family="-apple-system, BlinkMacSystemFont, &quot;Helvetica Neue&quot;, &quot;PingFang SC&quot;, &quot;Microsoft YaHei&quot;, &quot;Source Han Sans SC&quot;, &quot;Noto Sans CJK SC&quot;, &quot;WenQuanYi Micro Hei&quot;, sans-serif" font-size="18px" font-weight="400" fill="rgb(204, 204, 204)">Express.js</text></g></g><rect x="95" y="866" rx="4px" ry="4px" width="362.969px" height="33px" fill="rgba(0, 0, 0, 0)" stroke="rgb(229, 231, 235)" stroke-width="0px"></rect><g><rect x="98" y="869" rx="0px" ry="0px" width="356.969px" height="27px" fill="rgba(0, 0, 0, 0)" stroke="rgb(229, 231, 235)" stroke-width="0px"></rect><g><text x="98" y="891.5" text-anchor="start" font-family="-apple-system, BlinkMacSystemFont, &quot;Helvetica Neue&quot;, &quot;PingFang SC&quot;, &quot;Microsoft YaHei&quot;, &quot;Source Han Sans SC&quot;, &quot;Noto Sans CJK SC&quot;, &quot;WenQuanYi Micro Hei&quot;, sans-serif" font-size="18px" font-weight="400" fill="rgb(204, 204, 204)">Databases (MongoDB, PostgreSQL, MySQL)</text></g></g><rect x="238" y="921" rx="4px" ry="4px" width="219.562px" height="33px" fill="rgba(0, 0, 0, 0)" stroke="rgb(229, 231, 235)" stroke-width="0px"></rect><g><rect x="241" y="924" rx="0px" ry="0px" width="213.562px" height="27px" fill="rgba(0, 0, 0, 0)" stroke="rgb(229, 231, 235)" stroke-width="0px"></rect><g><text x="241" y="946.5" text-anchor="start" font-family="-apple-system, BlinkMacSystemFont, &quot;Helvetica Neue&quot;, &quot;PingFang SC&quot;, &quot;Microsoft YaHei&quot;, &quot;Source Han Sans SC&quot;, &quot;Noto Sans CJK SC&quot;, &quot;WenQuanYi Micro Hei&quot;, sans-serif" font-size="18px" font-weight="400" fill="rgb(204, 204, 204)">API Design &amp; RESTful APIs</text></g></g><rect x="817" y="455" rx="30px" ry="30px" width="693.516px" height="95px" fill="rgb(76, 79, 105)" stroke="rgb(229, 231, 235)" stroke-width="0px"></rect><g><rect x="847" y="465" rx="0px" ry="0px" width="561.516px" height="37.5px" fill="rgba(0, 0, 0, 0)" stroke="rgb(229, 231, 235)" stroke-width="0px"></rect><g><text x="847" y="496" text-anchor="start" font-family="-apple-system, BlinkMacSystemFont, &quot;Helvetica Neue&quot;, &quot;PingFang SC&quot;, &quot;Microsoft YaHei&quot;, &quot;Source Han Sans SC&quot;, &quot;Noto Sans CJK SC&quot;, &quot;WenQuanYi Micro Hei&quot;, sans-serif" font-size="25px" font-weight="400" fill="rgb(255, 255, 255)">Mastering JavaScript for Full Stack Development</text></g></g><rect x="1585" y="214" rx="20px" ry="20px" width="257.188px" height="49px" fill="rgb(76, 79, 105)" stroke="rgb(65, 69, 165)" stroke-width="3px"></rect><g><rect x="1610" y="222" rx="0px" ry="0px" width="201.188px" height="27px" fill="rgba(0, 0, 0, 0)" stroke="rgb(229, 231, 235)" stroke-width="0px"></rect><g><text x="1610" y="244.5" text-anchor="start" font-family="-apple-system, BlinkMacSystemFont, &quot;Helvetica Neue&quot;, &quot;PingFang SC&quot;, &quot;Microsoft YaHei&quot;, &quot;Source Han Sans SC&quot;, &quot;Noto Sans CJK SC&quot;, &quot;WenQuanYi Micro Hei&quot;, sans-serif" font-size="18px" font-weight="400" fill="rgb(255, 255, 255)">Intermediate JavaScript</text></g></g><rect x="1882" y="89" rx="4px" ry="4px" width="161.766px" height="33px" fill="rgba(0, 0, 0, 0)" stroke="rgb(229, 231, 235)" stroke-width="0px"></rect><g><rect x="1885" y="92" rx="0px" ry="0px" width="155.766px" height="27px" fill="rgba(0, 0, 0, 0)" stroke="rgb(229, 231, 235)" stroke-width="0px"></rect><g><text x="1885" y="114.5" text-anchor="start" font-family="-apple-system, BlinkMacSystemFont, &quot;Helvetica Neue&quot;, &quot;PingFang SC&quot;, &quot;Microsoft YaHei&quot;, &quot;Source Han Sans SC&quot;, &quot;Noto Sans CJK SC&quot;, &quot;WenQuanYi Micro Hei&quot;, sans-serif" font-size="18px" font-weight="400" fill="rgb(204, 204, 204)">DOM Manipulation</text></g></g><rect x="1882" y="144" rx="4px" ry="4px" width="134.062px" height="33px" fill="rgba(0, 0, 0, 0)" stroke="rgb(229, 231, 235)" stroke-width="0px"></rect><g><rect x="1885" y="147" rx="0px" ry="0px" width="128.062px" height="27px" fill="rgba(0, 0, 0, 0)" stroke="rgb(229, 231, 235)" stroke-width="0px"></rect><g><text x="1885" y="169.5" text-anchor="start" font-family="-apple-system, BlinkMacSystemFont, &quot;Helvetica Neue&quot;, &quot;PingFang SC&quot;, &quot;Microsoft YaHei&quot;, &quot;Source Han Sans SC&quot;, &quot;Noto Sans CJK SC&quot;, &quot;WenQuanYi Micro Hei&quot;, sans-serif" font-size="18px" font-weight="400" fill="rgb(204, 204, 204)">Event Handling</text></g></g><rect x="1882" y="199" rx="4px" ry="4px" width="422.953px" height="33px" fill="rgba(0, 0, 0, 0)" stroke="rgb(229, 231, 235)" stroke-width="0px"></rect><g><rect x="1885" y="202" rx="0px" ry="0px" width="416.953px" height="27px" fill="rgba(0, 0, 0, 0)" stroke="rgb(229, 231, 235)" stroke-width="0px"></rect><g><text x="1885" y="224.5" text-anchor="start" font-family="-apple-system, BlinkMacSystemFont, &quot;Helvetica Neue&quot;, &quot;PingFang SC&quot;, &quot;Microsoft YaHei&quot;, &quot;Source Han Sans SC&quot;, &quot;Noto Sans CJK SC&quot;, &quot;WenQuanYi Micro Hei&quot;, sans-serif" font-size="18px" font-weight="400" fill="rgb(204, 204, 204)">Asynchronous JavaScript (Promises, Async/Await)</text></g></g><rect x="1882" y="254" rx="4px" ry="4px" width="228.312px" height="33px" fill="rgba(0, 0, 0, 0)" stroke="rgb(229, 231, 235)" stroke-width="0px"></rect><g><rect x="1885" y="257" rx="0px" ry="0px" width="222.312px" height="27px" fill="rgba(0, 0, 0, 0)" stroke="rgb(229, 231, 235)" stroke-width="0px"></rect><g><text x="1885" y="279.5" text-anchor="start" font-family="-apple-system, BlinkMacSystemFont, &quot;Helvetica Neue&quot;, &quot;PingFang SC&quot;, &quot;Microsoft YaHei&quot;, &quot;Source Han Sans SC&quot;, &quot;Noto Sans CJK SC&quot;, &quot;WenQuanYi Micro Hei&quot;, sans-serif" font-size="18px" font-weight="400" fill="rgb(204, 204, 204)">Error Handling (try...catch)</text></g></g><rect x="1882" y="309" rx="4px" ry="4px" width="173.328px" height="33px" fill="rgba(0, 0, 0, 0)" stroke="rgb(229, 231, 235)" stroke-width="0px"></rect><g><rect x="1885" y="312" rx="0px" ry="0px" width="167.328px" height="27px" fill="rgba(0, 0, 0, 0)" stroke="rgb(229, 231, 235)" stroke-width="0px"></rect><g><text x="1885" y="334.5" text-anchor="start" font-family="-apple-system, BlinkMacSystemFont, &quot;Helvetica Neue&quot;, &quot;PingFang SC&quot;, &quot;Microsoft YaHei&quot;, &quot;Source Han Sans SC&quot;, &quot;Noto Sans CJK SC&quot;, &quot;WenQuanYi Micro Hei&quot;, sans-serif" font-size="18px" font-weight="400" fill="rgb(204, 204, 204)">Regular Expressions</text></g></g><rect x="1882" y="364" rx="4px" ry="4px" width="396.375px" height="33px" fill="rgba(0, 0, 0, 0)" stroke="rgb(229, 231, 235)" stroke-width="0px"></rect><g><rect x="1885" y="367" rx="0px" ry="0px" width="390.375px" height="27px" fill="rgba(0, 0, 0, 0)" stroke="rgb(229, 231, 235)" stroke-width="0px"></rect><g><text x="1885" y="389.5" text-anchor="start" font-family="-apple-system, BlinkMacSystemFont, &quot;Helvetica Neue&quot;, &quot;PingFang SC&quot;, &quot;Microsoft YaHei&quot;, &quot;Source Han Sans SC&quot;, &quot;Noto Sans CJK SC&quot;, &quot;WenQuanYi Micro Hei&quot;, sans-serif" font-size="18px" font-weight="400" fill="rgb(204, 204, 204)">Object-Oriented Programming (OOP) Concepts</text></g></g><rect x="1585" y="534" rx="20px" ry="20px" width="320.266px" height="49px" fill="rgb(76, 79, 105)" stroke="rgb(120, 154, 250)" stroke-width="3px"></rect><g><rect x="1610" y="542" rx="0px" ry="0px" width="264.266px" height="27px" fill="rgba(0, 0, 0, 0)" stroke="rgb(229, 231, 235)" stroke-width="0px"></rect><g><text x="1610" y="564.5" text-anchor="start" font-family="-apple-system, BlinkMacSystemFont, &quot;Helvetica Neue&quot;, &quot;PingFang SC&quot;, &quot;Microsoft YaHei&quot;, &quot;Source Han Sans SC&quot;, &quot;Noto Sans CJK SC&quot;, &quot;WenQuanYi Micro Hei&quot;, sans-serif" font-size="18px" font-weight="400" fill="rgb(255, 255, 255)">Frontend Frameworks/Libraries</text></g></g><rect x="1945" y="464" rx="4px" ry="4px" width="52.8281px" height="33px" fill="rgba(0, 0, 0, 0)" stroke="rgb(229, 231, 235)" stroke-width="0px"></rect><g><rect x="1948" y="467" rx="0px" ry="0px" width="46.8281px" height="27px" fill="rgba(0, 0, 0, 0)" stroke="rgb(229, 231, 235)" stroke-width="0px"></rect><g><text x="1948" y="489.5" text-anchor="start" font-family="-apple-system, BlinkMacSystemFont, &quot;Helvetica Neue&quot;, &quot;PingFang SC&quot;, &quot;Microsoft YaHei&quot;, &quot;Source Han Sans SC&quot;, &quot;Noto Sans CJK SC&quot;, &quot;WenQuanYi Micro Hei&quot;, sans-serif" font-size="18px" font-weight="400" fill="rgb(204, 204, 204)">React</text></g></g><rect x="1945" y="519" rx="4px" ry="4px" width="71.2344px" height="33px" fill="rgba(0, 0, 0, 0)" stroke="rgb(229, 231, 235)" stroke-width="0px"></rect><g><rect x="1948" y="522" rx="0px" ry="0px" width="65.2344px" height="27px" fill="rgba(0, 0, 0, 0)" stroke="rgb(229, 231, 235)" stroke-width="0px"></rect><g><text x="1948" y="544.5" text-anchor="start" font-family="-apple-system, BlinkMacSystemFont, &quot;Helvetica Neue&quot;, &quot;PingFang SC&quot;, &quot;Microsoft YaHei&quot;, &quot;Source Han Sans SC&quot;, &quot;Noto Sans CJK SC&quot;, &quot;WenQuanYi Micro Hei&quot;, sans-serif" font-size="18px" font-weight="400" fill="rgb(204, 204, 204)">Angular</text></g></g><rect x="1945" y="574" rx="4px" ry="4px" width="55.5469px" height="33px" fill="rgba(0, 0, 0, 0)" stroke="rgb(229, 231, 235)" stroke-width="0px"></rect><g><rect x="1948" y="577" rx="0px" ry="0px" width="49.5469px" height="27px" fill="rgba(0, 0, 0, 0)" stroke="rgb(229, 231, 235)" stroke-width="0px"></rect><g><text x="1948" y="599.5" text-anchor="start" font-family="-apple-system, BlinkMacSystemFont, &quot;Helvetica Neue&quot;, &quot;PingFang SC&quot;, &quot;Microsoft YaHei&quot;, &quot;Source Han Sans SC&quot;, &quot;Noto Sans CJK SC&quot;, &quot;WenQuanYi Micro Hei&quot;, sans-serif" font-size="18px" font-weight="400" fill="rgb(204, 204, 204)">Vue.js</text></g></g><rect x="1945" y="629" rx="4px" ry="4px" width="57.6094px" height="33px" fill="rgba(0, 0, 0, 0)" stroke="rgb(229, 231, 235)" stroke-width="0px"></rect><g><rect x="1948" y="632" rx="0px" ry="0px" width="51.6094px" height="27px" fill="rgba(0, 0, 0, 0)" stroke="rgb(229, 231, 235)" stroke-width="0px"></rect><g><text x="1948" y="654.5" text-anchor="start" font-family="-apple-system, BlinkMacSystemFont, &quot;Helvetica Neue&quot;, &quot;PingFang SC&quot;, &quot;Microsoft YaHei&quot;, &quot;Source Han Sans SC&quot;, &quot;Noto Sans CJK SC&quot;, &quot;WenQuanYi Micro Hei&quot;, sans-serif" font-size="18px" font-weight="400" fill="rgb(204, 204, 204)">Svelte</text></g></g><rect x="1585" y="799" rx="20px" ry="20px" width="333.906px" height="49px" fill="rgb(76, 79, 105)" stroke="rgb(112, 108, 244)" stroke-width="3px"></rect><g><rect x="1610" y="807" rx="0px" ry="0px" width="277.906px" height="27px" fill="rgba(0, 0, 0, 0)" stroke="rgb(229, 231, 235)" stroke-width="0px"></rect><g><text x="1610" y="829.5" text-anchor="start" font-family="-apple-system, BlinkMacSystemFont, &quot;Helvetica Neue&quot;, &quot;PingFang SC&quot;, &quot;Microsoft YaHei&quot;, &quot;Source Han Sans SC&quot;, &quot;Noto Sans CJK SC&quot;, &quot;WenQuanYi Micro Hei&quot;, sans-serif" font-size="18px" font-weight="400" fill="rgb(255, 255, 255)">Full Stack Development Practices</text></g></g><rect x="1959" y="729" rx="4px" ry="4px" width="175.531px" height="33px" fill="rgba(0, 0, 0, 0)" stroke="rgb(229, 231, 235)" stroke-width="0px"></rect><g><rect x="1962" y="732" rx="0px" ry="0px" width="169.531px" height="27px" fill="rgba(0, 0, 0, 0)" stroke="rgb(229, 231, 235)" stroke-width="0px"></rect><g><text x="1962" y="754.5" text-anchor="start" font-family="-apple-system, BlinkMacSystemFont, &quot;Helvetica Neue&quot;, &quot;PingFang SC&quot;, &quot;Microsoft YaHei&quot;, &quot;Source Han Sans SC&quot;, &quot;Noto Sans CJK SC&quot;, &quot;WenQuanYi Micro Hei&quot;, sans-serif" font-size="18px" font-weight="400" fill="rgb(204, 204, 204)">Version Control (Git)</text></g></g><rect x="1959" y="784" rx="4px" ry="4px" width="255.859px" height="33px" fill="rgba(0, 0, 0, 0)" stroke="rgb(229, 231, 235)" stroke-width="0px"></rect><g><rect x="1962" y="787" rx="0px" ry="0px" width="249.859px" height="27px" fill="rgba(0, 0, 0, 0)" stroke="rgb(229, 231, 235)" stroke-width="0px"></rect><g><text x="1962" y="809.5" text-anchor="start" font-family="-apple-system, BlinkMacSystemFont, &quot;Helvetica Neue&quot;, &quot;PingFang SC&quot;, &quot;Microsoft YaHei&quot;, &quot;Source Han Sans SC&quot;, &quot;Noto Sans CJK SC&quot;, &quot;WenQuanYi Micro Hei&quot;, sans-serif" font-size="18px" font-weight="400" fill="rgb(204, 204, 204)">Testing (Jest, Mocha, Cypress)</text></g></g><rect x="1959" y="839" rx="4px" ry="4px" width="296.422px" height="33px" fill="rgba(0, 0, 0, 0)" stroke="rgb(229, 231, 235)" stroke-width="0px"></rect><g><rect x="1962" y="842" rx="0px" ry="0px" width="290.422px" height="27px" fill="rgba(0, 0, 0, 0)" stroke="rgb(229, 231, 235)" stroke-width="0px"></rect><g><text x="1962" y="864.5" text-anchor="start" font-family="-apple-system, BlinkMacSystemFont, &quot;Helvetica Neue&quot;, &quot;PingFang SC&quot;, &quot;Microsoft YaHei&quot;, &quot;Source Han Sans SC&quot;, &quot;Noto Sans CJK SC&quot;, &quot;WenQuanYi Micro Hei&quot;, sans-serif" font-size="18px" font-weight="400" fill="rgb(204, 204, 204)">Deployment (Netlify, Heroku, AWS)</text></g></g><rect x="1959" y="894" rx="4px" ry="4px" width="96.7969px" height="33px" fill="rgba(0, 0, 0, 0)" stroke="rgb(229, 231, 235)" stroke-width="0px"></rect><g><rect x="1962" y="897" rx="0px" ry="0px" width="90.7969px" height="27px" fill="rgba(0, 0, 0, 0)" stroke="rgb(229, 231, 235)" stroke-width="0px"></rect><g><text x="1962" y="919.5" text-anchor="start" font-family="-apple-system, BlinkMacSystemFont, &quot;Helvetica Neue&quot;, &quot;PingFang SC&quot;, &quot;Microsoft YaHei&quot;, &quot;Source Han Sans SC&quot;, &quot;Noto Sans CJK SC&quot;, &quot;WenQuanYi Micro Hei&quot;, sans-serif" font-size="18px" font-weight="400" fill="rgb(204, 204, 204)">Debugging</text></g></g><g><rect x="847" y="515" rx="4px" ry="4px" width="62.9375px" height="22.1875px" fill="rgb(26, 43, 43)" stroke="rgb(229, 231, 235)" stroke-width="0px"></rect><g><text x="851" y="533" text-anchor="start" font-family="-apple-system, BlinkMacSystemFont, &quot;Helvetica Neue&quot;, &quot;PingFang SC&quot;, &quot;Microsoft YaHei&quot;, &quot;Source Han Sans SC&quot;, &quot;Noto Sans CJK SC&quot;, &quot;WenQuanYi Micro Hei&quot;, sans-serif" font-size="14px" font-weight="400" fill="rgb(52, 152, 219)">fullstack</text></g></g><g><rect x="916" y="515" rx="4px" ry="4px" width="71.2812px" height="22.1875px" fill="rgb(26, 43, 43)" stroke="rgb(229, 231, 235)" stroke-width="0px"></rect><g><text x="920" y="533" text-anchor="start" font-family="-apple-system, BlinkMacSystemFont, &quot;Helvetica Neue&quot;, &quot;PingFang SC&quot;, &quot;Microsoft YaHei&quot;, &quot;Source Han Sans SC&quot;, &quot;Noto Sans CJK SC&quot;, &quot;WenQuanYi Micro Hei&quot;, sans-serif" font-size="14px" font-weight="400" fill="rgb(52, 152, 219)">javascript</text></g></g><g><rect x="993" y="515" rx="4px" ry="4px" width="59.3906px" height="22.1875px" fill="rgb(26, 43, 43)" stroke="rgb(229, 231, 235)" stroke-width="0px"></rect><g><text x="997" y="533" text-anchor="start" font-family="-apple-system, BlinkMacSystemFont, &quot;Helvetica Neue&quot;, &quot;PingFang SC&quot;, &quot;Microsoft YaHei&quot;, &quot;Source Han Sans SC&quot;, &quot;Noto Sans CJK SC&quot;, &quot;WenQuanYi Micro Hei&quot;, sans-serif" font-size="14px" font-weight="400" fill="rgb(52, 152, 219)">webdev</text></g></g><g><rect x="1414" y="467" rx="0px" ry="0px" width="31px" height="32.5px" fill="rgba(0, 0, 0, 0)" stroke="rgb(229, 231, 235)" stroke-width="0px"></rect><g><text x="1414" y="495.5" text-anchor="start" font-family="-apple-system, BlinkMacSystemFont, &quot;Helvetica Neue&quot;, &quot;PingFang SC&quot;, &quot;Microsoft YaHei&quot;, &quot;Source Han Sans SC&quot;, &quot;Noto Sans CJK SC&quot;, &quot;WenQuanYi Micro Hei&quot;, sans-serif" font-size="25px" font-weight="400" fill="rgb(255, 255, 255)">💻</text></g></g><g><rect x="1445" y="467" rx="0px" ry="0px" width="31px" height="32.5px" fill="rgba(0, 0, 0, 0)" stroke="rgb(229, 231, 235)" stroke-width="0px"></rect><g><text x="1445" y="495.5" text-anchor="start" font-family="-apple-system, BlinkMacSystemFont, &quot;Helvetica Neue&quot;, &quot;PingFang SC&quot;, &quot;Microsoft YaHei&quot;, &quot;Source Han Sans SC&quot;, &quot;Noto Sans CJK SC&quot;, &quot;WenQuanYi Micro Hei&quot;, sans-serif" font-size="25px" font-weight="400" fill="rgb(255, 255, 255)">🌐</text></g></g></svg></svg>